<svg width="300" height="47" viewBox="0 0 300 47" fill="none" xmlns="http://www.w3.org/2000/svg">
<path fill-rule="evenodd" clip-rule="evenodd" d="M55 23.0754H57.1441C57.1441 23.0754 56.9608 18.4921 61.6667 16.4088C56.1765 17.242 55 23.0754 55 23.0754Z" fill="#1A1919"/>
<path fill-rule="evenodd" clip-rule="evenodd" d="M46.6667 26.3279C46.6667 24.6386 46.8826 23.0057 47.3145 21.4289C47.7465 19.8522 48.3624 18.38 49.1622 17.0123C49.9621 15.6448 50.922 14.3979 52.0339 13.2716C53.1457 12.1453 54.3776 11.18 55.7373 10.3835C57.0972 9.5872 58.5609 8.96774 60.1206 8.52525C60.331 8.4656 60.5425 8.41 60.7552 8.35849C60.4268 7.70852 60.2416 6.97316 60.2416 6.19438C60.2416 4.87331 60.7744 3.6767 61.6354 2.81056C62.4966 1.94468 63.6864 1.40875 64.9999 1.40875C66.3137 1.40875 67.5033 1.94468 68.3645 2.81056C69.2255 3.6767 69.7583 4.87331 69.7583 6.19438C69.7583 6.97462 69.5725 7.71123 69.2431 8.36201C69.4508 8.41254 69.6577 8.46694 69.8632 8.52525C71.423 8.96774 72.8788 9.5872 74.2387 10.3835C75.5984 11.18 76.8382 12.1453 77.9581 13.2716C79.078 14.3979 80.0378 15.6448 80.8296 17.0123C81.6216 18.38 82.2375 19.8522 82.6773 21.4289C83.1173 23.0057 83.3333 24.6386 83.3333 26.3279C83.3333 27.4188 83.2449 28.48 83.0661 29.5136H80.0682H76.3557H53.6418H48.4883H46.9317C46.755 28.48 46.6667 27.4188 46.6667 26.3279ZM66.1253 5.06254C65.8375 4.77317 65.4395 4.59397 64.9999 4.59397C64.5603 4.59397 64.1623 4.77317 63.8745 5.06254C63.5868 5.35191 63.4086 5.75228 63.4086 6.19438C63.4086 6.63645 63.5868 7.03673 63.8745 7.32623C64.1623 7.61556 64.5603 7.79476 64.9999 7.79476C65.4395 7.79476 65.8375 7.61556 66.1253 7.32623C66.4131 7.03673 66.5912 6.63645 66.5912 6.19438C66.5912 5.75228 66.4131 5.35191 66.1253 5.06254ZM76.3529 23.1423C76.2179 22.6328 76.0491 22.134 75.8464 21.6461C75.2386 20.1739 74.4066 18.8948 73.3508 17.8169C72.2949 16.7308 71.0551 15.87 69.6233 15.2345C68.1915 14.599 66.6478 14.2852 64.9999 14.2852C63.3362 14.2852 61.7925 14.599 60.3607 15.2345C58.9289 15.87 57.681 16.7308 56.6252 17.8169C55.5693 18.8948 54.7454 20.1739 54.1455 21.6461C53.9455 22.134 53.7786 22.6328 53.6447 23.1423H76.3529ZM82.2045 32.6993C81.8282 33.724 81.3699 34.7002 80.8296 35.6276C80.0378 36.9871 79.078 38.226 77.9581 39.3442C76.8382 40.4624 75.5984 41.4277 74.2387 42.2322C72.8788 43.0367 71.423 43.6561 69.8632 44.0905C68.3035 44.5249 66.6797 44.7421 64.9999 44.7421C63.3042 44.7421 61.6804 44.5249 60.1206 44.0905C58.5609 43.6561 57.0972 43.0367 55.7373 42.2322C54.3776 41.4277 53.1457 40.4624 52.0339 39.3442C50.922 38.226 49.9621 36.9871 49.1622 35.6276C48.6167 34.7002 48.1566 33.724 47.7823 32.6993H54.9923C55.4564 33.4712 56.0002 34.1769 56.6252 34.815C57.681 35.9011 58.9289 36.7539 60.3607 37.3814C61.7925 38.0088 63.3362 38.3225 64.9999 38.3225C66.6478 38.3225 68.1915 38.0088 69.6233 37.3814C71.0551 36.7539 72.2949 35.9011 73.3508 34.815C73.9758 34.1769 74.5224 33.4712 74.9904 32.6993H82.2045Z" fill="#1A1919"/>
<path fill-rule="evenodd" clip-rule="evenodd" d="M181.667 26.4327C181.667 24.753 181.883 23.1293 182.315 21.5615C182.746 19.9937 183.362 18.5299 184.162 17.17C184.962 15.8103 185.922 14.5705 187.034 13.4506C188.146 12.3308 189.378 11.371 190.737 10.579C192.097 9.78718 193.561 9.17124 195.121 8.73127C196.68 8.29133 198.304 8.07541 200 8.07541C201.68 8.07541 203.303 8.29133 204.863 8.73127C206.423 9.17124 207.879 9.78718 209.239 10.579C210.598 11.371 211.838 12.3308 212.958 13.4506C214.078 14.5705 215.038 15.8103 215.83 17.17C216.622 18.5299 217.238 19.9937 217.677 21.5615C218.117 23.1293 218.333 24.753 218.333 26.4327C218.333 28.1286 218.117 29.7522 217.677 31.312C217.238 32.8718 216.622 34.3276 215.83 35.6794C215.038 37.0312 214.078 38.2631 212.958 39.3749C211.838 40.4867 210.598 41.4465 209.239 42.2465C207.879 43.0464 206.423 43.6623 204.863 44.0942C203.303 44.5262 201.68 44.7421 200 44.7421C198.304 44.7421 196.68 44.5262 195.121 44.0942C193.561 43.6623 192.097 43.0464 190.737 42.2465C189.378 41.4465 188.146 40.4867 187.034 39.3749C185.922 38.2631 184.962 37.0312 184.162 35.6794C183.362 34.3276 182.746 32.8718 182.315 31.312C181.883 29.7522 181.667 28.1286 181.667 26.4327ZM201.584 14.5589V24.8249H211.658C211.523 23.7662 211.253 22.7503 210.846 21.7774C210.239 20.3136 209.407 19.0418 208.351 17.97C207.295 16.8901 206.055 16.0342 204.623 15.4024C203.66 14.9773 202.646 14.6969 201.584 14.5589ZM201.584 27.9925V38.2588C202.646 38.1215 203.66 37.8429 204.623 37.4232C206.055 36.7993 207.295 35.9514 208.351 34.8715C209.407 33.7997 210.239 32.5359 210.846 31.0881C211.26 30.1081 211.533 29.0763 211.665 27.9925H201.584ZM198.416 38.2602V27.9925H188.335C188.466 29.0763 188.737 30.1081 189.146 31.0881C189.745 32.5359 190.569 33.7997 191.625 34.8715C192.681 35.9514 193.929 36.7993 195.361 37.4232C196.327 37.8444 197.345 38.1234 198.416 38.2602ZM198.416 24.8249V14.5576C197.345 14.695 196.327 14.9758 195.361 15.4024C193.929 16.0342 192.681 16.8901 191.625 17.97C190.569 19.0418 189.745 20.3136 189.146 21.7774C188.744 22.7503 188.476 23.7662 188.342 24.8249H198.416Z" fill="#1A1919"/>
<path fill-rule="evenodd" clip-rule="evenodd" d="M283.358 18.8905C283.244 19.203 283.129 19.5154 283.015 19.8279C282.901 20.1404 282.787 20.461 282.673 20.7899L277.288 34.5298H289.378L284.019 20.7899C283.921 20.4774 283.815 20.1567 283.7 19.8362C283.586 19.5154 283.472 19.203 283.358 18.8905ZM282.354 7.00074C282.436 6.85276 282.55 6.71297 282.697 6.58967C282.844 6.46633 283.056 6.40875 283.333 6.40875C283.578 6.40875 283.782 6.47456 283.945 6.61435C284.108 6.7541 284.247 6.91857 284.353 7.0994C284.459 7.28032 284.549 7.45302 284.622 7.61749C284.696 7.78191 284.753 7.89703 284.802 7.96275L285.218 8.94952C287.698 14.7381 290.153 20.4939 292.576 26.225C294.999 31.9561 297.438 37.7201 299.902 43.5087C299.918 43.5581 299.943 43.6321 299.967 43.739C299.992 43.8458 300 43.9362 300 44.0021C300 44.4955 299.674 44.7421 299.021 44.7421H294.175C293.506 44.7421 293.058 44.4296 292.829 43.8129L291.434 40.2033H275.208L273.838 43.7637C273.593 44.4132 273.136 44.7421 272.467 44.7421H267.646C267.287 44.7421 267.034 44.6763 266.887 44.5447C266.74 44.4132 266.667 44.2323 266.667 44.0021C266.667 43.9035 266.683 43.8047 266.707 43.706C266.732 43.6074 266.756 43.5169 266.789 43.4347C269.236 37.646 271.676 31.8904 274.107 26.1756C276.538 20.461 278.993 14.7217 281.473 8.94952C281.604 8.62058 281.742 8.29169 281.889 7.97097C282.036 7.65039 282.191 7.32968 282.354 7.00074Z" fill="#1A1919"/>
<path fill-rule="evenodd" clip-rule="evenodd" d="M243.345 46.4087C243.151 46.4087 242.933 46.2876 242.682 46.0533C242.432 45.811 242.189 45.4798 241.963 45.0518L231.75 25.4006L229.81 43.9857C229.778 44.3572 229.673 44.6318 229.495 44.8176C229.317 45.0034 229.042 45.1002 228.67 45.1002H224.473C223.713 45.1002 223.333 44.7691 223.333 44.1068V43.9857L226.802 9.04459C226.802 8.97995 226.818 8.89115 226.842 8.77808C226.867 8.66504 226.899 8.55188 226.948 8.44688C226.996 8.34192 227.077 8.253 227.182 8.18036C227.287 8.1076 227.425 8.07541 227.603 8.07541C227.91 8.07541 228.177 8.26916 228.403 8.65696C230.893 12.9539 233.368 17.2347 235.826 21.4993C238.284 25.764 240.766 30.0447 243.273 34.3418C243.273 34.3901 243.289 34.4306 243.321 34.4629C243.37 34.4144 243.394 34.374 243.394 34.3418L244.194 32.7425C246.555 28.704 248.9 24.6898 251.229 20.6997C253.558 16.7097 255.903 12.6955 258.264 8.65696C258.474 8.26916 258.741 8.07541 259.064 8.07541C259.226 8.07541 259.363 8.1076 259.468 8.18036C259.573 8.253 259.654 8.34192 259.711 8.44688C259.767 8.55188 259.808 8.66504 259.832 8.77808C259.856 8.89115 259.865 8.97995 259.865 9.04459C260.414 14.6177 260.964 20.1504 261.506 25.6428C262.048 31.1352 262.598 36.6678 263.164 42.2411L263.333 44.0825V44.1795C263.333 44.5025 263.228 44.7369 263.01 44.8823C262.792 45.0276 262.508 45.1002 262.169 45.1002H257.972C257.277 45.1002 256.897 44.7288 256.832 43.9857L254.916 25.4006L244.655 45.1972C244.623 45.2456 244.566 45.3344 244.485 45.4718C244.405 45.6091 244.308 45.7465 244.194 45.8838C244.081 46.0211 243.952 46.1422 243.806 46.2472C243.661 46.3521 243.507 46.4087 243.345 46.4087Z" fill="#1A1919"/>
<path fill-rule="evenodd" clip-rule="evenodd" d="M116.337 26.3593C116.337 25.1733 116.131 24.0697 115.717 23.0485C115.304 22.0272 114.725 21.113 113.981 20.3058C113.236 19.4987 112.351 18.8152 111.318 18.255C110.284 17.695 109.143 17.275 107.903 16.995V35.7237C109.143 35.4437 110.284 35.0153 111.318 34.447C112.351 33.8788 113.236 33.1952 113.981 32.388C114.725 31.581 115.304 30.6668 115.717 29.6537C116.131 28.6407 116.337 27.5453 116.337 26.3593ZM93.2161 26.3593C93.2161 27.5618 93.4228 28.6737 93.8446 29.7032C94.2663 30.7327 94.8535 31.6551 95.606 32.4705C96.3668 33.2858 97.268 33.9858 98.3183 34.5624C99.3768 35.139 100.534 35.559 101.8 35.8225V16.9455C100.534 17.1927 99.3768 17.5962 98.3348 18.1562C97.2929 18.7163 96.3832 19.3999 95.6225 20.2152C94.8535 21.0307 94.2663 21.9613 93.8446 22.999C93.4228 24.0368 93.2161 25.1569 93.2161 26.3593ZM108.002 10.818C110.168 11.0815 112.178 11.6662 114.047 12.5805C115.907 13.4947 117.536 14.6477 118.909 16.0478C120.29 17.448 121.373 19.0457 122.159 20.8247C122.945 22.6119 123.333 24.5062 123.333 26.4911C123.333 28.5007 122.945 30.395 122.159 32.174C121.373 33.953 120.298 35.5343 118.926 36.918C117.553 38.3015 115.932 39.4463 114.072 40.3605C112.203 41.2748 110.185 41.8513 108.002 42.0983V43.655C108.002 44.0173 107.903 44.2891 107.704 44.4703C107.506 44.6515 107.224 44.7421 106.877 44.7421H102.924C102.172 44.7421 101.8 44.3798 101.8 43.655V42.049C99.6579 41.7854 97.6651 41.2006 95.8292 40.2947C93.9935 39.3888 92.3891 38.2521 91.033 36.8685C89.6685 35.4848 88.6017 33.9035 87.8327 32.1245C87.0554 30.3455 86.6667 28.4512 86.6667 26.4417C86.6667 24.4733 87.0554 22.5955 87.8327 20.8165C88.6017 19.0375 89.6685 17.4562 91.033 16.0725C92.3891 14.6889 93.9935 13.544 95.8292 12.6217C97.6651 11.6992 99.6579 11.098 101.8 10.818V9.1625C101.8 8.83302 101.899 8.5695 102.089 8.37189C102.279 8.17419 102.561 8.07541 102.924 8.07541H106.877C107.208 8.07541 107.481 8.17419 107.688 8.37189C107.894 8.5695 108.002 8.83302 108.002 9.1625V10.818Z" fill="#1A1919"/>
<path fill-rule="evenodd" clip-rule="evenodd" d="M40 9.13635C40 14.935 40 20.6842 40 26.3923C40 32.1086 40 37.8578 40 43.6564C40 44.3801 39.6202 44.7421 38.8606 44.7421H1.04244C0.751545 44.7421 0.509157 44.6434 0.307102 44.446C0.105004 44.2486 0 43.9854 0 43.6564V9.11175C0 8.832 0.105004 8.59352 0.307102 8.38799C0.509157 8.18229 0.759629 8.07541 1.06673 8.07541H5.72117C5.99602 8.07541 6.24649 8.17406 6.46463 8.37149C6.68285 8.56883 6.7879 8.8239 6.7879 9.13635V38.2279H16.5818V9.11175C16.5818 8.832 16.6789 8.58529 16.8727 8.37976C17.0667 8.17406 17.3171 8.07541 17.6242 8.07541H22.2788C22.5536 8.07541 22.804 8.17406 23.0303 8.37149C23.2566 8.56883 23.3697 8.8239 23.3697 9.13635V38.2279H33.1636V9.16103C33.1636 8.86491 33.2607 8.60997 33.4545 8.39608C33.6485 8.18229 33.9151 8.07541 34.2384 8.07541H38.8768C39.1515 8.07541 39.4101 8.17406 39.6444 8.37149C39.8788 8.56883 40 8.8239 40 9.13635Z" fill="#1A1919"/>
<path fill-rule="evenodd" clip-rule="evenodd" d="M142.499 39.7421H180.835C181.292 39.7421 181.667 40.0778 181.667 40.4883V43.996C181.667 44.4064 181.292 44.7421 180.835 44.7421H142.499C142.041 44.7421 141.667 44.4064 141.667 43.996V40.4883C141.667 40.0778 142.041 39.7421 142.499 39.7421Z" fill="#1A1919"/>
<path fill-rule="evenodd" clip-rule="evenodd" d="M169.768 40.2033L162.352 20.7899C162.235 20.4842 162.148 20.1567 162.034 19.8362C161.92 19.5156 161.805 19.203 161.691 18.8905C161.577 19.203 161.463 19.5154 161.349 19.8279C161.234 20.1404 161.131 20.4651 161.006 20.7899L153.541 40.2033L152.171 43.7637C151.926 44.4132 151.469 44.7421 150.8 44.7421H145.979C145.62 44.7421 145.367 44.6763 145.22 44.5447C145.073 44.4132 145 44.2323 145 44.0021C145 43.9035 145.016 43.8047 145.041 43.706C145.065 43.6074 145.09 43.5169 145.122 43.4347C147.57 37.646 150.009 31.8904 152.44 26.1756C154.871 20.461 157.327 14.7217 159.807 8.94952C159.937 8.62058 160.076 8.29169 160.223 7.97097C160.369 7.65039 160.524 7.32968 160.688 7.00074C160.769 6.85276 160.883 6.71297 161.03 6.58967C161.177 6.46633 161.389 6.40875 161.667 6.40875C161.911 6.40875 162.115 6.47456 162.278 6.61435C162.442 6.7541 162.58 6.91857 162.686 7.0994C162.792 7.28032 162.882 7.45302 162.956 7.61749C163.029 7.78191 163.086 7.89703 163.135 7.96275L163.551 8.94952C166.031 14.7381 168.487 20.4939 170.91 26.225C173.332 31.9561 175.772 37.7201 178.235 43.5087C178.252 43.5581 178.276 43.6321 178.301 43.739C178.325 43.8458 178.333 43.9362 178.333 44.0021C178.333 44.4955 178.007 44.7421 177.354 44.7421H172.509C171.84 44.7421 171.391 44.4296 171.162 43.8129L169.768 40.2033Z" fill="#1A1919"/>
<path fill-rule="evenodd" clip-rule="evenodd" d="M210 23.0754H207.856C207.856 23.0754 208.039 18.4921 203.333 16.4088C208.823 17.242 210 23.0754 210 23.0754Z" fill="#1A1919"/>
</svg>
